<svg width="20" height="20" viewBox="0 0 20 20" fill="none" xmlns="http://www.w3.org/2000/svg">
<rect width="20" height="20" rx="4" fill="#FC7840"/>
<path d="M10.8125 5.09091L10.706 12.9318H9.47017L9.36364 5.09091H10.8125ZM10.0881 16.0852C9.82528 16.0852 9.59979 15.9911 9.41158 15.8029C9.22337 15.6147 9.12926 15.3892 9.12926 15.1264C9.12926 14.8636 9.22337 14.6381 9.41158 14.4499C9.59979 14.2617 9.82528 14.1676 10.0881 14.1676C10.3509 14.1676 10.5763 14.2617 10.7646 14.4499C10.9528 14.6381 11.0469 14.8636 11.0469 15.1264C11.0469 15.3004 11.0025 15.4602 10.9137 15.6058C10.8285 15.7514 10.7131 15.8686 10.5675 15.9574C10.4254 16.0426 10.2656 16.0852 10.0881 16.0852Z" fill="white"/>
</svg>
